<?xml version="1.0" encoding="UTF-8"?>
<!DOCTYPE svg PUBLIC "-//W3C//DTD SVG 1.1//EN" "http://www.w3.org/Graphics/SVG/1.1/DTD/svg11.dtd">
<!-- Creator: CorelDRAW X6 -->
<svg xmlns="http://www.w3.org/2000/svg" xml:space="preserve" width="118.533mm" height="70.0192mm" version="1.1" style="shape-rendering:geometricPrecision; text-rendering:geometricPrecision; image-rendering:optimizeQuality; fill-rule:evenodd; clip-rule:evenodd"
viewBox="0 0 11853 7002"
 xmlns:xlink="http://www.w3.org/1999/xlink">
 <defs>
  <style type="text/css">
   <![CDATA[
    .str0 {stroke:#373435;stroke-width:25}
    .fil1 {fill:none;fill-rule:nonzero}
    .fil2 {fill:#718FC8}
    .fil0 {fill:#373435;fill-rule:nonzero}
   ]]>
  </style>
 </defs>
 <g id="Camada_x0020_1">
  <metadata id="CorelCorpID_0Corel-Layer"/>
  <path class="fil0" d="M4588 3223c116,116 284,213 511,213 217,0 507,-93 507,-364 0,-281 -269,-352 -517,-352 -213,0 -443,-60 -443,-323 6,-234 223,-315 437,-315 143,0 304,37 391,168l37 -15c-87,-124 -201,-192 -428,-192 -217,0 -476,89 -476,354 0,279 232,362 482,362 205,0 478,50 478,314 0,238 -257,325 -468,325 -176,0 -356,-70 -482,-199l-29 25z"/>
  <path id="1" class="fil0" d="M5883 3426l0 -540 534 0c223,0 373,-203 373,-418 0,-205 -163,-416 -387,-416l-559 0 0 1374 39 0zm0 -1335l521 0c194,0 348,182 348,377 0,186 -126,379 -335,379l-534 0 0 -757z"/>
  <polygon id="2" class="fil0" points="6994,3426 6994,2052 6955,2052 6955,3426 "/>
  <polygon id="3" class="fil0" points="8341,3426 8385,3426 8385,2052 8347,2052 8347,3369 7296,2052 7267,2052 7267,3426 7305,3426 7305,2127 "/>
  <path id="4" class="fil1 str0" d="M4588 3223c116,116 284,213 511,213 217,0 507,-93 507,-364 0,-281 -269,-352 -517,-352 -213,0 -443,-60 -443,-323 6,-234 223,-315 437,-315 143,0 304,37 391,168l37 -15c-87,-124 -201,-192 -428,-192 -217,0 -476,89 -476,354 0,279 232,362 482,362 205,0 478,50 478,314 0,238 -257,325 -468,325 -176,0 -356,-70 -482,-199l-29 25z"/>
  <path id="5" class="fil1 str0" d="M5883 3426l0 -540 534 0c223,0 373,-203 373,-418 0,-205 -163,-416 -387,-416l-559 0 0 1374 39 0zm0 -1335l521 0c194,0 348,182 348,377 0,186 -126,379 -335,379l-534 0 0 -757z"/>
  <polygon id="6" class="fil1 str0" points="6994,3426 6994,2052 6955,2052 6955,3426 "/>
  <polygon id="7" class="fil1 str0" points="8341,3426 8385,3426 8385,2052 8347,2052 8347,3369 7296,2052 7267,2052 7267,3426 7305,3426 7305,2127 "/>
  <path class="fil0" d="M9337 3432c225,-4 399,-206 399,-435 0,-214 -162,-435 -399,-435 -226,0 -400,207 -400,435 0,220 163,428 400,435zm-376 -435c0,-203 152,-411 376,-411 213,0 375,197 375,411 0,202 -151,411 -375,411 -218,0 -370,-197 -376,-411z"/>
  <polygon id="1" class="fil0" points="9915,3426 9915,2998 10378,2998 10378,2973 9915,2973 9915,2591 10444,2591 10444,2567 9891,2567 9891,3426 "/>
  <polygon id="2" class="fil0" points="10559,3426 10559,2998 11022,2998 11022,2973 10559,2973 10559,2591 11087,2591 11087,2567 10534,2567 10534,3426 "/>
  <path id="3" class="fil1 str0" d="M9337 3432c225,-4 399,-206 399,-435 0,-214 -162,-435 -399,-435 -226,0 -400,207 -400,435 0,220 163,428 400,435zm-376 -435c0,-203 152,-411 376,-411 213,0 375,197 375,411 0,202 -151,411 -375,411 -218,0 -370,-197 -376,-411z"/>
  <polygon id="4" class="fil1 str0" points="9915,3426 9915,2998 10378,2998 10378,2973 9915,2973 9915,2591 10444,2591 10444,2567 9891,2567 9891,3426 "/>
  <polygon id="5" class="fil1 str0" points="10559,3426 10559,2998 11022,2998 11022,2973 10559,2973 10559,2591 11087,2591 11087,2567 10534,2567 10534,3426 "/>
  <path class="fil0" d="M4554 4235c0,254 200,523 486,523 145,0 345,-89 401,-239l-28 -7c-46,123 -247,218 -373,218 -254,0 -457,-235 -457,-493 0,-242 168,-493 440,-493 160,0 287,60 366,205l28 -9c-65,-131 -180,-225 -393,-225 -274,0 -469,254 -469,523z"/>
  <polygon id="1" class="fil0" points="6761,4749 6761,4720 6114,4720 6114,3718 6085,3718 6085,4749 "/>
  <path id="2" class="fil0" d="M7301 4749l161 -369 538 0 161 369 32 0 -448 -1031 -26 0 -450 1031 32 0zm687 -398l-514 0 258 -591 255 591z"/>
  <path id="3" class="fil0" d="M8780 4596c87,87 213,160 383,160 163,0 380,-70 380,-273 0,-210 -202,-264 -388,-264 -160,0 -332,-45 -332,-242 4,-176 167,-237 328,-237 107,0 228,28 293,126l28 -12c-65,-93 -151,-144 -321,-144 -163,0 -357,67 -357,266 0,209 174,271 361,271 154,0 359,38 359,235 0,179 -193,244 -351,244 -132,0 -267,-52 -361,-150l-22 19z"/>
  <path id="4" class="fil0" d="M10157 4596c87,87 213,160 383,160 163,0 380,-70 380,-273 0,-210 -202,-264 -388,-264 -160,0 -332,-45 -332,-242 4,-176 167,-237 328,-237 107,0 228,28 293,126l28 -12c-65,-93 -151,-144 -321,-144 -163,0 -357,67 -357,266 0,209 174,271 361,271 154,0 359,38 359,235 0,179 -193,244 -351,244 -132,0 -267,-52 -361,-150l-22 19z"/>
  <path id="5" class="fil1 str0" d="M4554 4235c0,254 200,523 486,523 145,0 345,-89 401,-239l-28 -7c-46,123 -247,218 -373,218 -254,0 -457,-235 -457,-493 0,-242 168,-493 440,-493 160,0 287,60 366,205l28 -9c-65,-131 -180,-225 -393,-225 -274,0 -469,254 -469,523z"/>
  <polygon id="6" class="fil1 str0" points="6761,4749 6761,4720 6114,4720 6114,3718 6085,3718 6085,4749 "/>
  <path id="7" class="fil1 str0" d="M7301 4749l161 -369 538 0 161 369 32 0 -448 -1031 -26 0 -450 1031 32 0zm687 -398l-514 0 258 -591 255 591z"/>
  <path id="8" class="fil1 str0" d="M8780 4596c87,87 213,160 383,160 163,0 380,-70 380,-273 0,-210 -202,-264 -388,-264 -160,0 -332,-45 -332,-242 4,-176 167,-237 328,-237 107,0 228,28 293,126l28 -12c-65,-93 -151,-144 -321,-144 -163,0 -357,67 -357,266 0,209 174,271 361,271 154,0 359,38 359,235 0,179 -193,244 -351,244 -132,0 -267,-52 -361,-150l-22 19z"/>
  <path id="9" class="fil1 str0" d="M10157 4596c87,87 213,160 383,160 163,0 380,-70 380,-273 0,-210 -202,-264 -388,-264 -160,0 -332,-45 -332,-242 4,-176 167,-237 328,-237 107,0 228,28 293,126l28 -12c-65,-93 -151,-144 -321,-144 -163,0 -357,67 -357,266 0,209 174,271 361,271 154,0 359,38 359,235 0,179 -193,244 -351,244 -132,0 -267,-52 -361,-150l-22 19z"/>
  <g id="_301848904">
   <path class="fil2" d="M2573 3501l-14 -3 -12 -2 5 12 -8 8c40,27 186,248 227,311 64,97 145,243 196,348 16,32 25,61 40,92 14,29 27,59 40,92 82,202 158,444 204,680 144,-64 277,-147 397,-246 -26,-56 -53,-110 -82,-160 -108,-189 -239,-363 -372,-534 -23,-29 -43,-53 -65,-82l-141 -161c-29,-30 -47,-49 -80,-75 -28,-23 -52,-44 -80,-67 -29,-24 -56,-45 -85,-70 -35,-29 -155,-118 -170,-141l0 1z"/>
   <path class="fil2" d="M2544 3516l-8 -4 -4 49 28 407c12,168 -25,544 -53,691 -34,189 -82,364 -141,530 50,4 100,6 152,6 109,0 216,-10 320,-29 3,-33 5,-63 5,-90 1,-95 -3,-171 -4,-259l-21 -243c-7,-80 -23,-165 -32,-238 -43,-332 -91,-425 -205,-719 -12,-31 -32,-73 -38,-101l1 -1z"/>
   <path class="fil2" d="M2473 3412c-3,-19 -35,-56 -47,-72l-153 -222c-17,-29 -32,-49 -48,-77 -15,-27 -29,-49 -45,-80 -176,-333 -263,-523 -356,-914 -12,-51 -23,-101 -32,-152 -145,64 -279,147 -400,246 5,14 11,27 17,40 36,84 57,110 101,185 88,150 197,289 300,429l130 158c14,19 17,23 34,40 16,17 17,24 33,41 134,148 234,217 389,341 31,25 52,44 84,63l21 3c-19,-14 -12,-8 -27,-32l-2 0z"/>
   <path class="fil2" d="M2486 3405l16 -14c8,-25 -12,-203 -16,-241l-9 -261c5,-444 66,-790 193,-1140 -50,-4 -101,-6 -152,-6 -108,0 -215,10 -317,28 -21,332 29,974 149,1286 45,118 87,235 136,348l0 -1z"/>
   <path class="fil2" d="M2493 3529l-146 322c-10,19 -12,19 -23,36l-106 190c-91,149 -293,429 -414,546 -23,23 -43,40 -62,64 -43,55 -85,80 -121,115 -41,40 -71,66 -99,89 130,88 273,159 424,210 30,-39 53,-73 64,-93l77 -145c68,-132 130,-257 188,-398 56,-134 111,-280 156,-429 23,-75 86,-471 76,-505l0 -23c-10,36 -1,12 -16,22l1 1z"/>
   <path class="fil2" d="M2536 3376l-10 59c14,-27 5,-17 26,-38l16 -34c36,-93 86,-194 132,-283 125,-243 211,-363 366,-566l219 -246c21,-22 29,-36 52,-58 12,-12 18,-18 31,-28l92 -85c16,-15 35,-32 57,-50 -129,-87 -271,-158 -421,-210 -52,71 -97,143 -148,243 -185,363 -214,463 -336,806 -20,56 -90,444 -76,490l-1 0z"/>
   <path class="fil2" d="M2472 3448c-82,-40 -182,-75 -302,-136 -285,-147 -544,-315 -778,-538l-219 -216 -79 -105c-95,128 -172,268 -228,418l46 37c197,152 822,416 1061,480 64,17 304,50 384,62 36,5 62,13 99,12l32 4c-11,-13 8,-5 -16,-18l1 -1z"/>
   <path class="fil2" d="M2463 3515c-16,2 -73,49 -91,63l-191 133c-17,11 -32,19 -51,30 -125,79 -232,137 -366,200 -282,132 -542,211 -838,262 69,144 158,278 264,396 53,-22 99,-43 130,-61l361 -235c93,-68 192,-137 280,-214l108 -91c136,-117 264,-279 374,-423 14,-19 37,-40 43,-60l0 -12c-10,11 8,3 -22,11l0 1z"/>
   <path class="fil2" d="M2574 3481l-24 -3 14 16c12,0 10,-3 10,8 77,8 499,238 556,273 121,75 253,167 364,256l115 99c73,62 241,226 309,311 10,12 20,24 29,36 93,-125 168,-263 224,-411 -139,-107 -117,-88 -379,-224 -71,-37 -145,-68 -218,-101l-222 -89c-75,-31 -156,-58 -237,-82 -48,-14 -69,-21 -125,-31l-269 -43c-49,-6 -97,-20 -147,-15l0 -1z"/>
   <path class="fil2" d="M2564 3413c-8,23 10,5 -16,23 8,12 -5,4 12,3l579 -374c224,-108 447,-211 692,-269 47,-11 82,-22 129,-33 48,-11 101,-20 154,-28 -69,-144 -157,-277 -262,-396 -213,94 -283,154 -508,307 -40,27 -71,53 -110,81 -39,29 -69,53 -108,84 -21,16 -33,27 -53,43l-103 88c-51,50 -75,55 -149,145l-248 307c-10,16 -5,8 -8,18l-1 1z"/>
   <path class="fil2" d="M2460 3501c8,-8 1,-5 14,-12 5,-3 12,-3 19,-5l-8 0c-39,-10 -290,29 -361,29 -53,0 -77,7 -133,5 -445,-8 -763,-48 -1172,-189 -16,-5 -35,-12 -53,-19 -5,52 -8,105 -8,158 0,107 10,212 29,313 25,3 48,7 73,10 190,24 558,-19 756,-46 342,-46 348,-60 648,-165l195 -80 1 -1z"/>
   <path class="fil2" d="M2567 3450l-12 17 27 -3 226 -22c82,-11 163,-1 245,-10 95,-10 383,10 485,23 174,24 517,94 733,174 5,-53 8,-108 8,-162 0,-105 -10,-208 -28,-307 -38,-5 -80,-10 -125,-10 -332,-3 -896,42 -1179,152 -67,26 -126,45 -193,71 -64,27 -127,50 -189,76l1 -1z"/>
   <path class="fil2" d="M2567 3450l-7 -10c-17,1 -4,10 -12,-3 26,-19 8,0 16,-23 -14,-6 -12,11 -11,-16 -21,21 -12,11 -26,38l10 -59c-14,12 -13,-1 -14,51l-8 0c1,-53 1,-25 -13,-37l-16 14 -13 7c14,25 8,19 27,32l-21 -3 -6 8c23,13 5,5 16,18l-32 -4 29 20 8 0c-7,1 -14,1 -19,5 -13,8 -7,4 -14,12l3 15c30,-8 12,0 22,-11l0 12 7 14c14,-10 6,14 16,-22l0 23 24 29 4 -49 15 -3 -5 -12 12 2 5 -5 -14 -16 24 3 8 -17 -27 3 12 -17 -1 1z"/>
  </g>
 </g>
</svg>
