<?xml version="1.0" encoding="UTF-8"?>
<!DOCTYPE svg PUBLIC "-//W3C//DTD SVG 1.1//EN" "http://www.w3.org/Graphics/SVG/1.1/DTD/svg11.dtd">
<!-- Creator: CorelDRAW X6 -->
<svg xmlns="http://www.w3.org/2000/svg" xml:space="preserve" width="118.533mm" height="70.0192mm" version="1.1" style="shape-rendering:geometricPrecision; text-rendering:geometricPrecision; image-rendering:optimizeQuality; fill-rule:evenodd; clip-rule:evenodd"
viewBox="0 0 11853 7002"
 xmlns:xlink="http://www.w3.org/1999/xlink">
 <defs>
  <style type="text/css">
   <![CDATA[
    .str0 {stroke:#FEFEFE;stroke-width:25}
    .fil1 {fill:none;fill-rule:nonzero}
    .fil2 {fill:#FEFEFE}
    .fil0 {fill:#FEFEFE;fill-rule:nonzero}
   ]]>
  </style>
 </defs>
 <g id="Camada_x0020_1">
  <metadata id="CorelCorpID_0Corel-Layer"/>
  <path class="fil0" d="M4839 3059c104,104 254,190 457,190 194,0 453,-83 453,-325 0,-251 -240,-315 -462,-315 -190,0 -396,-54 -396,-289 5,-209 199,-282 391,-282 128,0 272,33 349,150l33 -14c-78,-111 -180,-171 -382,-171 -194,0 -425,80 -425,316 0,249 208,323 431,323 183,0 427,45 427,280 0,213 -230,291 -419,291 -157,0 -318,-62 -431,-178l-26 22z"/>
  <path id="1" class="fil0" d="M5996 3240l0 -483 477 0c199,0 334,-182 334,-374 0,-183 -145,-372 -346,-372l-500 0 0 1228 35 0zm0 -1193l465 0c173,0 311,163 311,337 0,166 -112,339 -299,339l-477 0 0 -676z"/>
  <polygon id="2" class="fil0" points="6989,3240 6989,2012 6954,2012 6954,3240 "/>
  <polygon id="3" class="fil0" points="8193,3240 8232,3240 8232,2012 8198,2012 8198,3190 7259,2012 7233,2012 7233,3240 7267,3240 7267,2080 "/>
  <path id="4" class="fil1 str0" d="M4839 3059c104,104 254,190 457,190 194,0 453,-83 453,-325 0,-251 -240,-315 -462,-315 -190,0 -396,-54 -396,-289 5,-209 199,-282 391,-282 128,0 272,33 349,150l33 -14c-78,-111 -180,-171 -382,-171 -194,0 -425,80 -425,316 0,249 208,323 431,323 183,0 427,45 427,280 0,213 -230,291 -419,291 -157,0 -318,-62 -431,-178l-26 22z"/>
  <path id="5" class="fil1 str0" d="M5996 3240l0 -483 477 0c199,0 334,-182 334,-374 0,-183 -145,-372 -346,-372l-500 0 0 1228 35 0zm0 -1193l465 0c173,0 311,163 311,337 0,166 -112,339 -299,339l-477 0 0 -676z"/>
  <polygon id="6" class="fil1 str0" points="6989,3240 6989,2012 6954,2012 6954,3240 "/>
  <polygon id="7" class="fil1 str0" points="8193,3240 8232,3240 8232,2012 8198,2012 8198,3190 7259,2012 7233,2012 7233,3240 7267,3240 7267,2080 "/>
  <path class="fil0" d="M9083 3245c201,-3 357,-184 357,-389 0,-191 -145,-389 -357,-389 -202,0 -358,185 -358,389 0,197 146,383 358,389zm-336 -389c0,-182 136,-368 336,-368 190,0 335,176 335,368 0,181 -135,368 -335,368 -195,0 -331,-176 -336,-368z"/>
  <polygon id="1" class="fil0" points="9599,3240 9599,2857 10013,2857 10013,2836 9599,2836 9599,2494 10072,2494 10072,2473 9578,2473 9578,3240 "/>
  <polygon id="2" class="fil0" points="10174,3240 10174,2857 10588,2857 10588,2836 10174,2836 10174,2494 10647,2494 10647,2473 10153,2473 10153,3240 "/>
  <path id="3" class="fil1 str0" d="M9083 3245c201,-3 357,-184 357,-389 0,-191 -145,-389 -357,-389 -202,0 -358,185 -358,389 0,197 146,383 358,389zm-336 -389c0,-182 136,-368 336,-368 190,0 335,176 335,368 0,181 -135,368 -335,368 -195,0 -331,-176 -336,-368z"/>
  <polygon id="4" class="fil1 str0" points="9599,3240 9599,2857 10013,2857 10013,2836 9599,2836 9599,2494 10072,2494 10072,2473 9578,2473 9578,3240 "/>
  <polygon id="5" class="fil1 str0" points="10174,3240 10174,2857 10588,2857 10588,2836 10174,2836 10174,2494 10647,2494 10647,2473 10153,2473 10153,3240 "/>
  <path class="fil0" d="M4808 3963c0,227 179,467 435,467 130,0 309,-79 358,-214l-25 -6c-42,110 -221,195 -333,195 -227,0 -409,-210 -409,-441 0,-217 150,-441 393,-441 143,0 257,53 327,183l25 -8c-58,-117 -161,-201 -352,-201 -245,0 -419,227 -419,467z"/>
  <polygon id="1" class="fil0" points="6781,4422 6781,4396 6202,4396 6202,3501 6176,3501 6176,4422 "/>
  <path id="2" class="fil0" d="M7263 4422l144 -329 481 0 144 329 29 0 -401 -921 -23 0 -402 921 29 0zm614 -355l-459 0 231 -528 228 528z"/>
  <path id="3" class="fil0" d="M8585 4286c78,78 191,143 342,143 145,0 340,-62 340,-244 0,-188 -180,-236 -346,-236 -143,0 -297,-40 -297,-217 4,-157 149,-211 293,-211 96,0 204,25 262,113l25 -10c-58,-83 -135,-128 -287,-128 -145,0 -319,60 -319,237 0,187 156,243 323,243 137,0 320,34 320,210 0,160 -173,218 -314,218 -118,0 -239,-47 -323,-134l-19 17z"/>
  <path id="4" class="fil0" d="M9816 4286c78,78 191,143 342,143 145,0 340,-62 340,-244 0,-188 -180,-236 -346,-236 -143,0 -297,-40 -297,-217 4,-157 149,-211 293,-211 96,0 204,25 262,113l25 -10c-58,-83 -135,-128 -287,-128 -145,0 -319,60 -319,237 0,187 156,243 323,243 137,0 320,34 320,210 0,160 -173,218 -314,218 -118,0 -239,-47 -323,-134l-19 17z"/>
  <path id="5" class="fil1 str0" d="M4808 3963c0,227 179,467 435,467 130,0 309,-79 358,-214l-25 -6c-42,110 -221,195 -333,195 -227,0 -409,-210 -409,-441 0,-217 150,-441 393,-441 143,0 257,53 327,183l25 -8c-58,-117 -161,-201 -352,-201 -245,0 -419,227 -419,467z"/>
  <polygon id="6" class="fil1 str0" points="6781,4422 6781,4396 6202,4396 6202,3501 6176,3501 6176,4422 "/>
  <path id="7" class="fil1 str0" d="M7263 4422l144 -329 481 0 144 329 29 0 -401 -921 -23 0 -402 921 29 0zm614 -355l-459 0 231 -528 228 528z"/>
  <path id="8" class="fil1 str0" d="M8585 4286c78,78 191,143 342,143 145,0 340,-62 340,-244 0,-188 -180,-236 -346,-236 -143,0 -297,-40 -297,-217 4,-157 149,-211 293,-211 96,0 204,25 262,113l25 -10c-58,-83 -135,-128 -287,-128 -145,0 -319,60 -319,237 0,187 156,243 323,243 137,0 320,34 320,210 0,160 -173,218 -314,218 -118,0 -239,-47 -323,-134l-19 17z"/>
  <path id="9" class="fil1 str0" d="M9816 4286c78,78 191,143 342,143 145,0 340,-62 340,-244 0,-188 -180,-236 -346,-236 -143,0 -297,-40 -297,-217 4,-157 149,-211 293,-211 96,0 204,25 262,113l25 -10c-58,-83 -135,-128 -287,-128 -145,0 -319,60 -319,237 0,187 156,243 323,243 137,0 320,34 320,210 0,160 -173,218 -314,218 -118,0 -239,-47 -323,-134l-19 17z"/>
  <g id="_301848976">
   <path class="fil2" d="M3038 3308l-13 -2 -11 -2 4 11 -7 7c36,25 166,222 203,278 57,87 129,218 175,311 14,29 23,55 36,82 13,26 24,53 36,82 73,180 141,396 182,607 129,-58 248,-132 355,-220 -23,-50 -47,-99 -73,-143 -97,-169 -214,-324 -332,-477 -20,-26 -38,-47 -58,-74l-126 -144c-26,-27 -42,-44 -71,-67 -25,-21 -47,-39 -72,-60 -26,-21 -50,-40 -76,-63 -31,-26 -138,-105 -152,-126l0 1z"/>
   <path class="fil2" d="M3012 3320l-7 -4 -4 44 25 363c11,150 -23,486 -47,618 -31,169 -74,325 -126,474 45,4 89,6 135,6 97,0 193,-9 286,-26 3,-29 4,-56 4,-80 1,-85 -2,-153 -4,-231l-18 -217c-6,-71 -20,-147 -29,-213 -39,-297 -82,-380 -183,-642 -10,-28 -28,-65 -34,-91l1 -1z"/>
   <path class="fil2" d="M2949 3228c-3,-17 -31,-50 -42,-64l-137 -199c-15,-26 -28,-44 -43,-69 -13,-24 -26,-44 -40,-71 -157,-297 -235,-468 -318,-817 -11,-45 -20,-90 -28,-135 -129,58 -249,132 -357,220 5,12 10,24 15,36 32,75 51,98 91,165 78,134 176,258 268,384l116 141c13,17 15,20 30,36 14,15 15,21 29,37 119,132 209,194 348,305 28,22 47,39 75,56l19 3c-17,-12 -10,-7 -24,-29l-2 0z"/>
   <path class="fil2" d="M2961 3221l15 -13c7,-22 -10,-181 -15,-215l-8 -233c4,-396 59,-706 173,-1018 -45,-4 -90,-6 -136,-6 -97,0 -192,9 -284,25 -19,297 26,871 133,1150 40,105 78,210 122,311l0 -1z"/>
   <path class="fil2" d="M2966 3332l-131 287c-9,17 -10,17 -20,32l-95 170c-81,134 -262,384 -370,488 -21,20 -38,36 -55,57 -39,49 -76,71 -108,102 -37,36 -63,59 -88,80 116,78 244,142 379,188 27,-35 48,-65 58,-83l69 -129c61,-118 116,-230 168,-355 50,-120 99,-250 140,-384 20,-67 77,-421 68,-452l0 -21c-9,32 -1,10 -15,20l1 1z"/>
   <path class="fil2" d="M3005 3195l-9 53c13,-24 5,-15 23,-34l15 -31c32,-83 77,-173 118,-252 112,-217 188,-325 327,-506l195 -220c18,-20 26,-32 47,-52 11,-10 16,-16 28,-25l82 -76c14,-13 31,-29 51,-45 -115,-78 -242,-142 -376,-188 -47,63 -87,128 -132,217 -165,325 -191,414 -300,720 -18,50 -80,397 -68,438l-1 0z"/>
   <path class="fil2" d="M2948 3260c-74,-36 -163,-67 -270,-122 -254,-131 -486,-282 -695,-481l-195 -193 -70 -94c-85,114 -154,240 -204,374l41 33c176,136 735,371 948,429 58,15 271,45 343,56 32,5 56,12 88,11l28 4c-10,-12 7,-4 -14,-16l1 -1z"/>
   <path class="fil2" d="M2940 3320c-15,2 -65,44 -82,56l-171 119c-15,10 -29,17 -45,27 -112,70 -208,123 -327,178 -252,118 -485,189 -749,234 62,129 142,248 236,354 47,-20 89,-39 116,-55l322 -210c83,-61 172,-123 250,-191l96 -82c122,-105 236,-249 334,-378 13,-17 33,-36 39,-54l0 -10c-9,10 7,3 -20,10l0 1z"/>
   <path class="fil2" d="M3039 3290l-21 -2 13 14c10,0 9,-3 9,7 69,7 446,213 497,244 108,67 226,150 325,229l102 89c65,56 215,202 276,278 9,11 18,21 26,32 83,-112 150,-235 200,-367 -124,-96 -105,-78 -339,-200 -64,-33 -130,-61 -195,-90l-199 -80c-67,-28 -139,-51 -212,-73 -43,-13 -62,-19 -112,-28l-240 -39c-44,-6 -86,-18 -131,-13l0 -1z"/>
   <path class="fil2" d="M3030 3228c-7,21 9,4 -14,21 7,11 -5,4 10,2l518 -334c200,-97 400,-189 618,-241 42,-10 73,-20 115,-29 43,-10 91,-18 137,-25 -61,-129 -140,-248 -234,-354 -190,84 -253,137 -454,275 -36,25 -64,47 -99,72 -35,26 -62,48 -96,75 -18,15 -29,25 -47,38l-92 79c-45,45 -67,49 -134,130l-221 274c-9,14 -4,7 -7,16l-1 1z"/>
   <path class="fil2" d="M2937 3307c7,-7 1,-5 13,-11 5,-2 11,-3 17,-4l-7 0c-35,-9 -259,26 -323,26 -48,0 -69,6 -119,5 -398,-7 -681,-43 -1047,-169 -15,-5 -31,-10 -48,-17 -4,47 -7,94 -7,142 0,96 9,189 26,280 22,3 43,6 65,9 170,21 499,-17 676,-41 306,-41 311,-54 579,-148l175 -71 1 -1z"/>
   <path class="fil2" d="M3032 3262l-10 15 24 -2 202 -20c74,-10 146,-1 219,-9 85,-9 343,9 434,21 156,21 462,84 655,156 4,-48 7,-96 7,-145 0,-94 -9,-186 -25,-275 -34,-5 -71,-9 -112,-9 -297,-2 -801,37 -1053,136 -60,23 -113,40 -172,64 -58,24 -113,45 -169,68l1 -1z"/>
   <path class="fil2" d="M3032 3262l-6 -9c-15,1 -4,9 -10,-2 23,-17 7,0 14,-21 -13,-6 -10,10 -10,-14 -18,18 -10,10 -23,34l9 -53c-12,10 -12,-1 -12,46l-7 0c1,-48 1,-22 -12,-33l-15 13 -12 6c13,22 7,17 24,29l-19 -3 -6 7c21,12 4,4 14,16l-28 -4 26 18 7 0c-6,1 -12,1 -17,4 -12,7 -6,4 -13,11l3 13c27,-7 10,0 20,-10l0 10 6 12c13,-9 6,13 15,-20l0 21 21 26 4 -44 13 -2 -4 -11 11 2 5 -4 -13 -14 21 2 7 -15 -24 2 10 -15 -1 1z"/>
  </g>
 </g>
</svg>
