<?xml version="1.0" encoding="UTF-8"?>
<!DOCTYPE svg PUBLIC "-//W3C//DTD SVG 1.1//EN" "http://www.w3.org/Graphics/SVG/1.1/DTD/svg11.dtd">
<!-- Creator: CorelDRAW X6 -->
<svg xmlns="http://www.w3.org/2000/svg" xml:space="preserve" width="2480px" height="3508px" version="1.1" style="shape-rendering:geometricPrecision; text-rendering:geometricPrecision; image-rendering:optimizeQuality; fill-rule:evenodd; clip-rule:evenodd"
viewBox="0 0 2480 3507"
 xmlns:xlink="http://www.w3.org/1999/xlink">
 <defs>
  <style type="text/css">
   <![CDATA[
    .fil0 {fill:#718FC8}
   ]]>
  </style>
 </defs>
 <g id="Camada_x0020_1">
  <metadata id="CorelCorpID_0Corel-Layer"/>
  <g id="_301848904">
   <path class="fil0" d="M1202 1744l0 0 0 0 0 0 0 0c1,0 3,4 3,5 1,1 2,4 3,5 0,0 0,1 1,1 0,0 0,1 1,1 1,3 2,6 3,10 2,-1 4,-2 6,-4 0,-1 -1,-2 -1,-2 -2,-3 -3,-5 -5,-8 0,0 -1,-1 -1,-1l-2 -2c0,0 -1,-1 -1,-1 0,0 -1,-1 -1,-1 0,0 -1,-1 -1,-1 0,0 -2,-2 -2,-2l0 0 0 0z"/>
   <path class="fil0" d="M1202 1745l0 0 0 1 0 6c0,2 0,8 -1,10 0,3 -1,5 -2,8 1,0 1,0 2,0 2,0 3,0 5,0 0,0 0,-1 0,-1 0,-1 0,-2 0,-4l0 -4c0,-1 0,-2 0,-3 -1,-5 -1,-6 -3,-10 0,0 0,-1 -1,-1l0 0 0 0z"/>
   <path class="fil0" d="M1201 1743c0,0 0,-1 -1,-1l-2 -3c0,0 0,-1 -1,-1 0,0 0,-1 -1,-1 -2,-5 -4,-8 -5,-13 0,-1 0,-1 0,-2 -2,1 -4,2 -6,4 0,0 0,0 0,1 1,1 1,2 1,3 1,2 3,4 4,6l2 2c0,0 0,0 0,1 0,0 0,0 0,1 2,2 3,3 6,5 0,0 1,1 1,1l0 0c0,0 0,0 0,0l0 0 0 0z"/>
   <path class="fil0" d="M1201 1743l0 0c0,0 0,-3 0,-3l0 -4c0,-6 1,-11 3,-17 -1,0 -1,0 -2,0 -2,0 -3,0 -5,0 0,5 0,14 2,19 1,2 1,3 2,5l0 0 0 0z"/>
   <path class="fil0" d="M1201 1745l-2 5c0,0 0,0 0,1l-2 3c-1,2 -4,6 -6,8 0,0 -1,1 -1,1 -1,1 -1,1 -2,2 -1,1 -1,1 -1,1 2,1 4,2 6,3 0,-1 1,-1 1,-1l1 -2c1,-2 2,-4 3,-6 1,-2 2,-4 2,-6 0,-1 1,-7 1,-7l0 0c0,1 0,0 0,0l0 0 0 0z"/>
   <path class="fil0" d="M1202 1743l0 1c0,0 0,0 0,-1l0 0c1,-1 1,-3 2,-4 2,-4 3,-5 5,-8l3 -4c0,0 0,-1 1,-1 0,0 0,0 0,0l1 -1c0,0 0,0 1,-1 -2,-1 -4,-2 -6,-3 -1,1 -1,2 -2,4 -3,5 -3,7 -5,12 0,1 -1,6 -1,7l0 0 0 0z"/>
   <path class="fil0" d="M1201 1744c-1,-1 -3,-1 -4,-2 -4,-2 -8,-5 -11,-8l-3 -3 -1 -2c-1,2 -2,4 -3,6l1 1c3,2 12,6 15,7 1,0 4,1 5,1 1,0 1,0 1,0l0 0c0,0 0,0 0,0l0 0 0 0z"/>
   <path class="fil0" d="M1201 1745c0,0 -1,1 -1,1l-3 2c0,0 0,0 -1,0 -2,1 -3,2 -5,3 -4,2 -8,3 -12,4 1,2 2,4 4,6 1,0 1,-1 2,-1l5 -3c1,-1 3,-2 4,-3l2 -1c2,-2 4,-4 5,-6 0,0 1,-1 1,-1l0 0c0,0 0,0 0,0l0 0 0 0z"/>
   <path class="fil0" d="M1202 1744l0 0 0 0c0,0 0,0 0,0 1,0 7,3 8,4 2,1 4,2 5,4l2 1c1,1 3,3 4,5 0,0 0,0 0,1 1,-2 2,-4 3,-6 -2,-2 -2,-1 -5,-3 -1,-1 -2,-1 -3,-1l-3 -1c-1,0 -2,-1 -3,-1 -1,0 -1,0 -2,0l-4 -1c-1,0 -1,0 -2,0l0 0 0 0z"/>
   <path class="fil0" d="M1202 1743c0,0 0,0 0,0 0,0 0,0 0,0l8 -5c3,-2 6,-3 10,-4 1,0 1,0 2,0 1,0 1,0 2,0 -1,-2 -2,-4 -4,-6 -3,1 -4,2 -7,4 -1,0 -1,1 -2,1 -1,0 -1,1 -2,1 0,0 0,0 -1,1l-1 1c-1,1 -1,1 -2,2l-4 4c0,0 0,0 0,0l0 0 0 0z"/>
   <path class="fil0" d="M1201 1744c0,0 0,0 0,0 0,0 0,0 0,0l0 0c-1,0 -4,0 -5,0 -1,0 -1,0 -2,0 -6,0 -11,-1 -17,-3 0,0 0,0 -1,0 0,1 0,2 0,2 0,2 0,3 0,5 0,0 1,0 1,0 3,0 8,0 11,-1 5,-1 5,-1 9,-2l3 -1 0 0 0 0z"/>
   <path class="fil0" d="M1202 1744l0 0 0 0 3 0c1,0 2,0 3,0 1,0 5,0 7,0 2,0 7,1 10,3 0,-1 0,-2 0,-2 0,-2 0,-3 0,-4 -1,0 -1,0 -2,0 -5,0 -13,1 -17,2 -1,0 -2,1 -3,1 -1,0 -2,1 -3,1l0 0 0 0z"/>
   <path class="fil0" d="M1202 1744l0 0c0,0 0,0 0,0 0,0 0,0 0,0 0,0 0,0 0,0 0,0 0,0 0,1l0 -1c0,0 0,0 0,1l0 0c0,-1 0,0 0,-1l0 0 0 0c0,0 0,0 0,0l0 0 0 0c0,0 0,0 0,0l0 0 0 0 0 0c0,0 0,0 0,0 0,0 0,0 0,0l0 0c0,0 0,0 0,0l0 0 0 0c0,0 0,0 0,0l0 0 0 0 0 -1 0 0 0 0 0 0 0 0 0 0 0 0 0 0 0 0 0 0 0 0 0 0z"/>
  </g>
 </g>
</svg>
